# xmcd CD database file
#
# Track frame offsets:
#	150
#	13717
#	28782
#	41997
#	56995
#	73490
#	89462
#	104912
#	119695
#	136497
#	154027
#	167102
#
# Disc length: 2427 seconds
#
# Revision: 2
# Processed by: cddbd v1.5.2PL0 Copyright (c) Steve Scherf et al.
# Submitted via: CDex 1.70beta3
#
DISCID=bd09790c
DTITLE=小野リサ - Romance Latino Vol.3 ～Cuba Caliente y su ritmo sabroso～
DYEAR=2005
DGENRE=Bossa Nova
TTITLE0=Cachito　私の坊や
TTITLE1=Quien Sera　キエン・セラ
TTITLE2=Bilongo　まじない
TTITLE3=Besame Mucho　ベサメ・ムーチョ
TTITLE4=El Bodeguero　雑貨屋のチャチャチャ
TTITLE5=Cachita　カチータ
TTITLE6=Siboney　シボネー
TTITLE7=La Enganadora　うそつき女
TTITLE8=Capullito De Aleli　アレリのつぼみ
TTITLE9=Vereda Tropical　南国の小径
TTITLE10=Cancion Para Santiago De Cuba　カンシオン・パラ・サンティアゴ・クーバ
TTITLE11=Contigo En La Distancia　遠く離れても
EXTD=YEAR: 2005
EXTT0=
EXTT1=
EXTT2=
EXTT3=
EXTT4=
EXTT5=
EXTT6=
EXTT7=
EXTT8=
EXTT9=
EXTT10=
EXTT11=
PLAYORDER=
